<?xml version="1.0" encoding="UTF-8"?><svg id="a" xmlns="http://www.w3.org/2000/svg" viewBox="0 0 489.75 344.39"><defs><style>.b{fill:#7fcaff;stroke:#ccc;}.b,.c,.d{stroke-miterlimit:10;}.c{fill:#fff;stroke:#fff;}.d{fill:#fcffc3;stroke:#fcffc3;}</style></defs><path class="b" d="M.5,47.25c37.94.36,59.82-5.55,94.38-19.89,11.79-4.73,23.39-9.56,34.94-14.2,14.48-5.64,29.2-11.61,44.8-12.52,18.78-1.39,36.8,7.43,51.57,18.63,8.76,7.12,18.58,12.31,18.79,22.72,1,50.65,6.45,200.18-.57,270.83l-6-1.83c-3.58-2.59-8.56-5.76-14.87-8.61-5.14-2.32-14.24-5.81-25.83-7.04-3.89-.41-11.68-.96-30.52,2.35-18.07,3.17-31.84,7.34-38.35,9.39-17.64,5.55-18.56,7.04-46.17,17.22-33.63,12.4-45.25,14.99-53.22,16.43-11.46,2.08-21.04,2.83-27.39,3.13L.5,47.25Z"/><path class="b" d="M489.25,47.25c-37.94.36-59.82-5.55-94.38-19.89-11.79-4.73-23.39-9.56-34.94-14.2-14.48-5.64-29.2-11.61-44.8-12.52-18.78-1.39-36.8,7.43-51.57,18.63-8.76,7.12-18.58,12.31-18.79,22.72-1,50.65-6.45,200.18.57,270.83l6-1.83c3.58-2.59,8.56-5.76,14.87-8.61,5.14-2.32,14.24-5.81,25.83-7.04,3.89-.41,11.68-.96,30.52,2.35,18.07,3.17,31.84,7.34,38.35,9.39,17.64,5.55,18.56,7.04,46.17,17.22,33.63,12.4,45.25,14.99,53.22,16.43,11.46,2.08,21.04,2.83,27.39,3.13l1.57-296.61Z"/><path class="c" d="M114.15,46.57c.03-8.21,10.77-13.55,20.09-13.07,3.46.18,7.03.96,9.65,2.97s4,5.46,2.58,8.24c6.44-3.12,14.37-4.51,21.23-2.15s11.91,9.12,10.05,15.39c-5.33,2.42-11.57,3.26-17.48,2.37.22,5.14,7.27,8.86,6.62,13.97-.63,4.93-7.58,6.76-13.17,7.44-7.75.94-17.05,1.36-21.86-4.07-4.28,6.83-12.97,11.35-21.83,11.34-1.13,0-2.35-.1-3.19-.76-.89-.69-1.14-1.81-1.29-2.85-.52-3.5-.61-7.05-.28-10.57-.31,3.3-23.55-1.72-25.84-4.91-3.34-4.65-2.01-12.46,1.08-16.84,3.22-4.56,10.67-10.54,15.98-12.97,5.69-2.61,19.33-1.97,17.67,6.49Z"/><path class="c" d="M354.9,124.94c.03-8.21,10.77-13.55,20.09-13.07,3.46.18,7.03.96,9.65,2.97s4,5.46,2.58,8.24c6.44-3.12,14.37-4.51,21.23-2.15s11.91,9.12,10.05,15.39c-5.33,2.42-11.57,3.26-17.48,2.37.22,5.14,7.27,8.86,6.62,13.97-.63,4.93-7.58,6.76-13.17,7.44-7.75.94-17.05,1.36-21.86-4.07-4.28,6.83-12.97,11.35-21.83,11.34-1.13,0-2.35-.1-3.19-.76-.89-.69-1.14-1.81-1.29-2.85-.52-3.5-.61-7.05-.28-10.57-.31,3.3-23.55-1.72-25.84-4.91-3.34-4.65-2.01-12.46,1.08-16.84,3.22-4.56,10.67-10.54,15.98-12.97,5.69-2.61,19.33-1.97,17.67,6.49Z"/><path class="d" d="M297.63,294.04c-2.87,0-7.17-.34-12-2.09-4.71-1.71-7.7-3.95-11.48-6.78-5.73-4.3-9.39-7.05-12-12-1.24-2.35-1.88-5.77-3.13-12.52-1.29-7.01-1.18-8.42-2.61-17.74-1.64-10.67-2.06-10.56-2.09-14.09-.05-6.2,1.23-7.26,2.61-16.17,1.93-12.5-.16-13.39,2.09-21.65,1.18-4.33,2.73-10.04,7.43-15.26,3.37-3.74,7.94-5.84,17.09-10.04,7.46-3.43,11.29-5.18,16.7-5.74,2.49-.26,7.46-.72,13.57,1.04,6.94,2,11.32,5.72,12.52,6.78,3.62,3.21,5.35,6.45,7.83,10.96,2.6,4.73,3.9,7.09,3.91,9.52.05,8.21-10.24,13.72-9.65,14.48.48.62,8.19-2.13,11.48-8.87,3.17-6.49.91-13.38,0-16.17-.44-1.34-1.96-5.82-5.74-9.91-3.05-3.29-6.26-5.74-6.26-5.74-3.09-2.35-12.64-3.97-12.52-5.09.16-1.46,11.17-1.54,13.57-1.7,2.33-.15,4.19.6,7.83,2.09,4.42,1.82,7.56,3.69,8.35,4.17,3.04,1.85,2.69,2.01,6.26,4.17,2.55,1.54,3.49,1.92,6.07,3.61,2.29,1.49,3.44,2.24,4.37,3.18.89.89,3.25,3.33,3.98,7.09.27,1.38.22,2.47.2,2.82-.03.58-.21,2.71-1.55,5.06-1.31,2.29-4.98,6.5-4.84,6.68.28.38,7.43-3.52,9-6.65,3.65-7.29.49-16.88-1.57-17.61-2.58-.92-2.61-2.03-15.26-9.39-6.71-3.91-11.17-5.75-14.09-6.65-4.71-1.46-7.94-3.21-15.52-3.26-5.62-.04-12.86-.05-22.43,1.57-8.44,1.42-13.34,2.25-19.3,5.22-8.87,4.42-13.23,10.16-14.09,9.39-1.18-1.06,7.11-11.95,8.35-13.57,4.61-6.02,6.92-9.03,10.96-12,5.97-4.4,11.78-6.02,14.61-6.78,6.19-1.67,12.97-2.1,16.51-2.32.45-.03,2.05-.13,4.36-.28,3.37-.23,5.05-.35,7.19-.54,3.55-.32,6.37-.68,8.99-1.02,3.52-.45,3.08-.45,4.68-.63,3.91-.44,7.23,1.14,10.98,1.55,1.6.17,4.23-1.04,9.5.46,4.04,1.15,4.65,1.41,7.72,2.28,7.28,2.05,10.37,2.8,10.43,2.61,2.19-6.69-64.62-14.88-70.7-8.87-.18.18,3.38-3.38,4.37-4.41,2.23-2.33,4.35-3.67,4.76-3.93,3.62-2.29,11.23-7.87,10.96-8.35-.37-.66-17.01,5.5-34.43,17.74-3.17,2.23-8.83,6.38-9.39,5.74-.7-.8,8.28-6.87,11.48-17.22.84-2.71,2.12-8.46,2.68-12.46.25-1.78.45-3.71.45-3.71.07-.66.3-2.85.46-5.52.34-5.67.83-13.67.06-13.79-.92-.14-.67,11.44-7.83,22.43-1.53,2.36,1.23,3.71,0,7.04-2.05,5.53-4.84,8.08-6.26,12.78-.91,3-2.12,4.2-8.35,11.48-6.61,7.72-9.91,11.58-10.96,13.04-7.7,10.78-8.18,18.24-12,18.26-2.63.02-4.67-3.5-6.26-6.26-2.29-3.96-2.57-7.03-3.65-15.13-1.96-14.72-2.37-14.61-2.09-17.74.25-2.73,1.38-6.51,3.65-14.09,2.22-7.43,3.34-11.14,4.7-13.57,1.84-3.28,4.9-6.41,10.96-12.52,5.53-5.59,8.3-8.38,10.96-9.91,4.12-2.38,7.97-3.15,15.65-4.7,11.09-2.23,13.5-1.15,16.7-4.17,1.91-1.81,1.52-2.65,6.26-8.35,2.66-3.2,4.3-4.76,4.92-5.34,2.93-2.73,5.53-4.44,6.56-5.09,5.5-3.49,10.41-4.77,10.43-4.7.05.12-16.07,3.17-29.74,15.13-2.43,2.12-3.44,3.36-6.26,5.22-7.22,4.76-17.18,6.34-22.96,4.17-1.04-.39-6.62,5.96-7.3,2.74-.53-2.46,1.64-7.66,1.57-10.96-.02-.96.36-5.15.39-7.83.07-5.82.92-6.89.39-7.83-2.76-4.86-4.46-9.2-1.96-15.65.6-1.55,1.91-4.72,1.96-5.48.35-5.63,4.59-5.44,7.43-7.04.77-.43,5.87-5.33,8.61-7.04,3.13-1.96,12.4-6.66,12.13-7.04-.59-.84-26.12,9.51-31.04,18.13-.54.95-1.54,2.7-2.09,5.22-.54,2.48-.32,4.26,0,8.35.2,2.61.31,5.22.52,7.83.65,8.04.97,12.05.52,15.65-.31,2.5-2.13,6.4-5.74,14.09-6.38,13.58-8.54,16.38-12,18.26-1.6.87-4.37,2.38-7.3,1.57-4.08-1.13-3.12-5.27-8.35-8.87-3.31-2.29-5.31-1.73-11.52-5.6-1.36-.84-2.31-1.52-2.57-1.71-3.16-2.26-5.18-4.33-7.31-6.53-2.18-2.25-3.71-4.08-5.74-6.51-.73-.87-2.09-2.5-3.23-3.98,0,0-3.91-5.09-6.69-10.63-5.02-10.05-2.76-21.38-3.13-21.39-.39-.01-3.3,12.06,1.17,25.43,1.03,3.07,2.8,8.2,7.17,13.17,2.67,3.03,3.45,2.76,10.04,8.35,5.05,4.28,4.44,4.31,11.87,10.96,6.28,5.62,7.02,5.85,8.87,8.35,1.67,2.25,4.42,6.05,5.22,11.48.27,1.84.17,2.89-.52,8.87-1.68,14.48-2.06,16.59-3.65,17.22-1.5.59-2.89-.62-7.3-3.65-2.04-1.4-10.83-7.44-17.22-10.43-4.02-1.89-2.01-.18-15.13-4.17-7.61-2.32-13.6-4.51-19.3-9.39-.24-.2-.87-.75-1.66-1.51-2.76-2.64-5.23-5.74-9.81-14.14-1.75-3.21-6.2-11.42-8.72-18.87-.96-2.83-1.71-5.65-1.71-5.65s-.78-2.92-1.36-5.87c-1.57-7.96-1.45-21.25-1.77-21.26-.29,0-2.31,10.77-.39,24.39,1.44,10.19,4.47,17.6,5.87,20.74,1.92,4.33,3.77,7.36,5.48,10.17,4.2,6.9,7.17,11.8,12.52,16.43,1.15,1,6.06,5.14,13.57,8.09,7.9,3.1,11.01,1.82,18.78,5.74,4.01,2.02,6.76,4.11,8.87,5.74,1.35,1.04,7.31,5.72,13.57,14.09,2.67,3.57,6.84,9.16,9.91,17.22,4.69,12.31,5.25,26.33,2.61,27.13-1.43.43-2.51-3.4-8.35-9.39-5.81-5.96-11.68-9.27-15.65-11.48-6.83-3.79-7.08-2.58-15.65-6.78-6.77-3.32-12.1-5.93-17.74-10.96-5.25-4.67-7.91-8.88-13.04-13.57-2.85-2.6-7.39-6.19-8.2-6.8-.08-.06-.15-.12-.15-.12s-1.23-.92-2.41-1.75c-3.13-2.21-5.94-3.86-5.94-3.86-1.09-.64-1.99-1.13-3.24-1.8-4.55-2.42-8.23-4.21-8.76-4.46-8.73-4.28-13.64-10.74-14.61-9.91-.91.77,2.16,7.52,7.83,12.52,1.95,1.72,5.3,3.58,12,7.3,6.41,3.56,7.28,3.72,9.91,5.74,2.91,2.23,2.69,2.69,7.83,7.3,4.37,3.93,5.02,4.04,7.83,6.78,3.65,3.56,3.85,4.65,6.78,7.83,1.5,1.62,6.85,7.2,14.61,10.96,7.63,3.7,13.07,3.46,13.04,4.7-.04,1.61-9.14.68-20.35,5.22-8.42,3.41-7.87,5.79-17.22,9.39-6.61,2.55-11.46,4.42-17.74,3.65-6.7-.82-10.08-4.64-14.09-2.61-2.65,1.34-2.04,3.38-5.48,5.48-3.32,2.03-6.91,1.99-9.78,1.96-5.16-.06-8.1-1.5-8.22-1.17-.18.5,6.33,5.16,13.57,4.17,4.62-.63,5.12-2.78,9.91-4.7,8.27-3.3,11.69,1.15,24.52,0,1.39-.12,7.95-.72,15.65-3.65,9.79-3.73,10.01-6.88,18.13-9.91,4.08-1.52,13.61-5.08,23.09-1.17,8.76,3.61,12.81,11.67,15.13,16.3,3.44,6.84,4.13,12.85,4.7,18.78.5,5.34.17,10.94-.52,21.91-.64,10.18-.98,15.38-2.09,20.87-1.5,7.48-3.44,12.77-4.7,16.17-1.88,5.09-3.08,8.24-5.74,12-1.78,2.52-4.12,5.82-8.35,8.35-3.1,1.86-6.11,2.48-12,3.65-4.5.9-8.29,1.33-10.96,1.57"/></svg>